<?xml version="1.0" encoding="UTF-8" standalone="no"?>
<svg
   xmlns:dc="http://purl.org/dc/elements/1.1/"
   xmlns:cc="http://creativecommons.org/ns#"
   xmlns:rdf="http://www.w3.org/1999/02/22-rdf-syntax-ns#"
   xmlns:svg="http://www.w3.org/2000/svg"
   xmlns="http://www.w3.org/2000/svg"
   xmlns:sodipodi="http://sodipodi.sourceforge.net/DTD/sodipodi-0.dtd"
   xmlns:inkscape="http://www.inkscape.org/namespaces/inkscape"
   inkscape:version="1.0rc1 (09960d6, 2020-04-09)"
   sodipodi:docname="cah_black.svg"
   version="1.1"
   viewBox="0 0 156.07 25.77"
   data-name="Layer 1"
   id="Layer_1">
  <metadata
     id="metadata172">
    <rdf:RDF>
      <cc:Work
         rdf:about="">
        <dc:format>image/svg+xml</dc:format>
        <dc:type
           rdf:resource="http://purl.org/dc/dcmitype/StillImage" />
      </cc:Work>
    </rdf:RDF>
  </metadata>
  <sodipodi:namedview
     inkscape:current-layer="g3005"
     inkscape:window-maximized="0"
     inkscape:window-y="217"
     inkscape:window-x="1440"
     inkscape:cy="19.573715"
     inkscape:cx="78.035004"
     inkscape:zoom="3.1396167"
     showgrid="false"
     id="namedview170"
     inkscape:window-height="1395"
     inkscape:window-width="2560"
     inkscape:pageshadow="2"
     inkscape:pageopacity="0"
     guidetolerance="10"
     gridtolerance="10"
     objecttolerance="10"
     borderopacity="1"
     bordercolor="#666666"
     pagecolor="#ffffff" />
  <defs
     id="defs148">
    <style
       id="style146">.cls-1{fill:#393735;}.cls-2,.cls-6{fill:#fff;}.cls-3{fill:#9d9c99;}.cls-4{fill:#f6f6f5;}.cls-5{fill:#9c9b98;}.cls-6{font-size:10px;font-family:HelveticaNeue-Bold, Helvetica Neue;font-weight:700;}.cls-7{letter-spacing:-0.02em;}</style>
  </defs>
  <title
     id="title150">cah_black</title>
  <g
     id="g3005">
    <text
       y="20.357082"
       x="21.792742"
       style="font-weight:700;font-size:10px;font-family:HelveticaNeue-Bold, 'Helvetica Neue';fill:#ffffff"
       class="cls-6"
       id="text166-7"><tspan
         x="38.65274"
         y="20.357082"
         id="tspan164-2">Kosmi Against Humanity</tspan></text>
    <path
       id="path152"
       transform="translate(-8.83 -279.6)"
       d="M28.11,282.45l2.18.66,11.49,3.65c1,.32,2,.61,3,.88.5.14.64.35.48.89-1.62,5.21-3.2,10.43-4.81,15.65-.43,1.41-.44,1.35-1.87.89-2.88-.93-5.78-1.79-8.67-2.68-2.27-.69-4.53-1.4-6.82-2-.72-.2-.56-.57-.41-1.07Q24.87,292.18,27,285c.21-.68.38-1.37.58-2C27.67,282.76,27.69,282.42,28.11,282.45Z"
       class="cls-1" />
    <path
       id="path154"
       transform="translate(-8.83 -279.6)"
       d="M18,301.5c-1,.32-2.1.59-3.13,1-.65.24-.9.13-1.11-.56-1.59-5.3-3.19-10.6-4.87-15.88-.25-.79,0-1.18.6-1.37,2.51-.81,5-1.56,7.55-2.33.47-.14.37.22.38.46v17.84C17.47,301,17.35,301.53,18,301.5Z"
       class="cls-2" />
    <path
       id="path156"
       transform="translate(-8.83 -279.6)"
       d="M22.12,300.82H18.65c-.41,0-.64,0-.64-.56V282.79c0-.51.21-.57.64-.57h7.93c.82,0,.56.39.43.83q-2.54,8.38-5.06,16.77C21.84,300.16,21.47,300.58,22.12,300.82Z"
       class="cls-3" />
    <path
       id="path158"
       transform="translate(-8.83 -279.6)"
       d="M19.62,281.67a12.25,12.25,0,0,1,2.43-.85c1.24-.39,2.48-.76,3.72-1.16.43-.14.6-.07.76.39.54,1.63.56,1.62-1.17,1.62Z"
       class="cls-4" />
    <path
       id="path160"
       transform="translate(-8.83 -279.6)"
       d="M36.42,284.4l-6.6-2v-.15h6.11c.43,0,.48.2.47.55S36.42,283.76,36.42,284.4Z"
       class="cls-5" />
  </g>
</svg>
