<svg id="Layer_1" data-name="Layer 1" xmlns="http://www.w3.org/2000/svg" viewBox="0 0 156.07 25.77"><defs><style>.cls-1{fill:#393735;}.cls-2,.cls-6{fill:#fff;}.cls-3{fill:#9d9c99;}.cls-4{fill:#f6f6f5;}.cls-5{fill:#9c9b98;}.cls-6{font-size:10px;font-family:HelveticaNeue-Bold, Helvetica Neue;font-weight:700;}.cls-7{letter-spacing:-0.02em;}</style></defs><title>cah_black</title><g id="g3005"><path class="cls-1" d="M28.11,282.45l2.18.66,11.49,3.65c1,.32,2,.61,3,.88.5.14.64.35.48.89-1.62,5.21-3.2,10.43-4.81,15.65-.43,1.41-.44,1.35-1.87.89-2.88-.93-5.78-1.79-8.67-2.68-2.27-.69-4.53-1.4-6.82-2-.72-.2-.56-.57-.41-1.07Q24.87,292.18,27,285c.21-.68.38-1.37.58-2C27.67,282.76,27.69,282.42,28.11,282.45Z" transform="translate(-8.83 -279.6)"/><path class="cls-2" d="M18,301.5c-1,.32-2.1.59-3.13,1-.65.24-.9.13-1.11-.56-1.59-5.3-3.19-10.6-4.87-15.88-.25-.79,0-1.18.6-1.37,2.51-.81,5-1.56,7.55-2.33.47-.14.37.22.38.46v17.84C17.47,301,17.35,301.53,18,301.5Z" transform="translate(-8.83 -279.6)"/><path class="cls-3" d="M22.12,300.82H18.65c-.41,0-.64,0-.64-.56V282.79c0-.51.21-.57.64-.57h7.93c.82,0,.56.39.43.83q-2.54,8.38-5.06,16.77C21.84,300.16,21.47,300.58,22.12,300.82Z" transform="translate(-8.83 -279.6)"/><path class="cls-4" d="M19.62,281.67a12.25,12.25,0,0,1,2.43-.85c1.24-.39,2.48-.76,3.72-1.16.43-.14.6-.07.76.39.54,1.63.56,1.62-1.17,1.62Z" transform="translate(-8.83 -279.6)"/><path class="cls-5" d="M36.42,284.4l-6.6-2v-.15h6.11c.43,0,.48.2.47.55S36.42,283.76,36.42,284.4Z" transform="translate(-8.83 -279.6)"/><text class="cls-6" transform="translate(40.65 20.19)">Ca<tspan class="cls-7" x="13.15" y="0">r</tspan><tspan x="16.86" y="0">ds Against Humanity</tspan></text></g></svg>